<svg xmlns="http://www.w3.org/2000/svg" fill="none" viewBox="-6.0 -6.0 419.2 84.0" role="img" aria-label="Н11 Резиденция">
  <g fill="#0C263F">
    <rect x="0.00" y="0.78" width="11.00" height="71.22"/>
    <rect x="27.50" y="0.78" width="11.00" height="71.22"/>
    <rect x="-6.80" y="0" width="17.80" height="5.20"/>
    <rect x="20.70" y="0" width="17.80" height="5.20"/>
    <rect x="-6.80" y="66.80" width="24.60" height="5.20"/>
    <rect x="20.70" y="66.80" width="24.60" height="5.20"/>
    <rect x="11.00" y="30.24" width="16.50" height="8.60"/>
    <path d="M54.50 13.00L61.49 0L71.17 0L71.17 66.80L77.97 66.80L77.97 72.00L53.37 72.00L53.37 66.80L60.17 66.80L60.17 13.00Z"/>
    <path d="M86.17 13.00L93.16 0L102.84 0L102.84 66.80L109.64 66.80L109.64 72.00L85.04 72.00L85.04 66.80L91.84 66.80L91.84 13.00Z"/>
  </g>
  <g fill="#0C263F">
    <path d="M134.72 40.18V8.5H147.95Q148.42 8.5 149.17 8.53Q149.93 8.57 150.54 8.68Q153.33 9.11 155.14 10.53Q156.94 11.95 157.8 14.1Q158.67 16.25 158.67 18.89Q158.67 21.53 157.79 23.68Q156.92 25.83 155.12 27.25Q153.31 28.67 150.54 29.11Q149.93 29.19 149.16 29.24Q148.39 29.28 147.95 29.28H140.36V40.18ZM140.36 24.01H147.71Q148.17 24.01 148.71 23.96Q149.26 23.92 149.73 23.79Q150.99 23.46 151.7 22.65Q152.41 21.84 152.69 20.83Q152.98 19.83 152.98 18.89Q152.98 17.96 152.69 16.95Q152.41 15.94 151.7 15.13Q150.99 14.32 149.73 13.99Q149.26 13.86 148.71 13.82Q148.17 13.78 147.71 13.78H140.36Z"/>
    <path d="M174.7 40.84Q171.07 40.84 168.32 39.27Q165.56 37.7 164.01 34.94Q162.46 32.17 162.46 28.58Q162.46 24.69 163.98 21.81Q165.5 18.94 168.18 17.35Q170.87 15.76 174.37 15.76Q178.09 15.76 180.69 17.5Q183.29 19.24 184.55 22.41Q185.8 25.58 185.46 29.88H179.87V27.81Q179.86 24.05 178.61 22.36Q177.36 20.67 174.62 20.67Q171.46 20.67 169.95 22.61Q168.43 24.55 168.43 28.3Q168.43 31.77 169.95 33.67Q171.46 35.56 174.37 35.56Q176.23 35.56 177.57 34.74Q178.9 33.92 179.62 32.37L185.23 34.02Q183.88 37.26 181.01 39.05Q178.13 40.84 174.7 40.84ZM166.67 29.88V25.65H182.72V29.88Z"/>
    <path d="M199.52 40.84Q196.17 40.84 193.36 39.44Q190.55 38.04 188.93 35.59L193.38 32.62Q194.64 34.01 196.14 34.78Q197.64 35.56 199.46 35.56Q201.34 35.56 202.42 34.74Q203.49 33.91 203.49 32.53Q203.49 31.27 202.7 30.78Q201.92 30.29 200.68 30.22Q199.44 30.16 198.11 30.16H196.53V25.73H198.11Q200.03 25.73 201.36 25.34Q202.68 24.95 202.68 23.42Q202.68 22.09 201.7 21.54Q200.73 21 199.42 21Q197.78 21 196.14 21.7Q194.5 22.41 193.18 23.39L190.03 19.53Q192.03 17.81 194.49 16.78Q196.96 15.76 199.69 15.76Q201.97 15.76 203.99 16.55Q206 17.35 207.24 18.94Q208.49 20.52 208.49 22.89Q208.49 24.49 207.82 25.97Q207.16 27.44 205.63 28.83L205.57 27.02Q206.73 27.56 207.56 28.46Q208.38 29.36 208.82 30.54Q209.26 31.73 209.26 33.11Q209.26 35.63 207.92 37.35Q206.58 39.08 204.36 39.96Q202.14 40.84 199.52 40.84Z"/>
    <path d="M235.67 16.42V40.18H230.27V25.16L219.25 40.18H214.75V16.42H220.15V30.99L231.21 16.42Z"/>
    <path d="M240.77 45.46V35.79Q242.67 35.79 243.49 34.47Q244.3 33.15 244.77 29.83Q245.05 27.88 245.24 25.73Q245.44 23.57 245.57 21.24Q245.71 18.91 245.83 16.42H263.85V35.79H266.25V45.46H260.93V40.18H246.08V45.46ZM248.15 35.79H258.21V20.81H250.75Q250.68 22.08 250.6 23.37Q250.51 24.66 250.41 25.93Q250.3 27.21 250.2 28.39Q250.09 29.56 249.96 30.6Q249.75 32.49 249.39 33.69Q249.04 34.89 248.15 35.79Z"/>
    <path d="M282.26 40.84Q278.63 40.84 275.88 39.27Q273.13 37.7 271.57 34.94Q270.02 32.17 270.02 28.58Q270.02 24.69 271.54 21.81Q273.06 18.94 275.75 17.35Q278.43 15.76 281.94 15.76Q285.65 15.76 288.25 17.5Q290.85 19.24 292.11 22.41Q293.37 25.58 293.02 29.88H287.43V27.81Q287.42 24.05 286.18 22.36Q284.93 20.67 282.18 20.67Q279.03 20.67 277.51 22.61Q276 24.55 276 28.3Q276 31.77 277.51 33.67Q279.03 35.56 281.94 35.56Q283.8 35.56 285.13 34.74Q286.47 33.92 287.18 32.37L292.8 34.02Q291.44 37.26 288.57 39.05Q285.7 40.84 282.26 40.84ZM274.24 29.88V25.65H290.29V29.88Z"/>
    <path d="M298.62 40.18V16.42H304.26V25.64H314.48V16.42H320.12V40.18H314.48V30.92H304.26V40.18Z"/>
    <path d="M346.79 45.31V40.18H326.95V16.42H332.59V34.9H342.23V16.42H347.87V35.19H352.43V45.31Z"/>
    <path d="M377.52 16.42V40.18H372.13V25.16L361.1 40.18H356.61V16.42H362V30.99L373.07 16.42Z"/>
    <path d="M398.49 40.18V32.44H394.45Q393.67 32.44 392.42 32.4Q391.16 32.36 390.07 32.17Q387.28 31.67 385.47 29.74Q383.66 27.81 383.66 24.48Q383.66 21.24 385.39 19.26Q387.11 17.28 389.94 16.73Q391.11 16.49 392.35 16.45Q393.6 16.42 394.41 16.42H404.13L404.13 40.18ZM383.06 40.18 388.59 31.23H394.43L388.97 40.18ZM393.85 28.05H398.49V20.81H393.85Q393.43 20.81 392.9 20.85Q392.37 20.9 391.82 21.04Q391.19 21.23 390.64 21.71Q390.09 22.19 389.74 22.89Q389.39 23.58 389.39 24.44Q389.39 25.76 390.17 26.65Q390.95 27.54 391.94 27.82Q392.44 27.96 392.95 28.01Q393.47 28.05 393.85 28.05Z"/>
  </g>
  <g fill="#E15A24">
    <path d="M131.92 66.5 135.23 56.28H137.44L140.74 66.5H139.16L136.12 57.2H136.51L133.51 66.5ZM133.66 64.21V62.78H139.01V64.21Z"/>
    <path d="M144.42 66.5V56.28H152.58V66.5H151.05V57.72H145.95V66.5Z"/>
    <path d="M156.26 66.5 159.57 56.28H161.78L165.08 66.5H163.5L160.46 57.2H160.85L157.85 66.5ZM158 64.21V62.78H163.35V64.21Z"/>
    <path d="M168.76 66.5V56.28H172.91Q173.06 56.28 173.28 56.29Q173.51 56.3 173.7 56.33Q174.57 56.47 175.14 56.92Q175.71 57.37 175.99 58.05Q176.28 58.73 176.28 59.56Q176.28 60.39 175.99 61.08Q175.71 61.76 175.13 62.21Q174.56 62.66 173.7 62.79Q173.51 62.82 173.28 62.83Q173.05 62.85 172.91 62.85H170.29V66.5ZM170.29 61.41H172.85Q172.99 61.41 173.17 61.39Q173.34 61.38 173.5 61.34Q173.95 61.23 174.21 60.95Q174.48 60.67 174.6 60.3Q174.72 59.93 174.72 59.56Q174.72 59.2 174.6 58.83Q174.48 58.46 174.21 58.18Q173.95 57.89 173.5 57.78Q173.34 57.74 173.17 57.73Q172.99 57.72 172.85 57.72H170.29Z"/>
    <path d="M182.63 66.5V57.72H179.25V56.28H187.54V57.72H184.16V66.5Z"/>
    <path d="M190.93 62.63V61.41H195.19V62.63Z"/>
    <path d="M203.72 66.71Q202.18 66.71 201.1 66.04Q200.02 65.37 199.44 64.17Q198.87 62.97 198.87 61.39Q198.87 59.81 199.44 58.61Q200.02 57.41 201.1 56.73Q202.18 56.06 203.72 56.06Q205.25 56.06 206.33 56.73Q207.41 57.41 207.99 58.61Q208.56 59.81 208.56 61.39Q208.56 62.97 207.99 64.17Q207.41 65.37 206.33 66.04Q205.25 66.71 203.72 66.71ZM203.72 65.26Q204.79 65.27 205.51 64.79Q206.22 64.3 206.58 63.42Q206.94 62.55 206.94 61.39Q206.94 60.23 206.58 59.36Q206.22 58.49 205.51 58.01Q204.79 57.52 203.72 57.51Q202.64 57.5 201.93 57.99Q201.21 58.47 200.86 59.35Q200.5 60.23 200.49 61.39Q200.49 62.55 200.85 63.42Q201.21 64.28 201.92 64.77Q202.64 65.25 203.72 65.26Z"/>
    <path d="M214.91 66.5V57.72H211.53V56.28H219.82V57.72H216.44V66.5Z"/>
    <path d="M223.36 66.5V56.28H229.91V57.72H224.89V60.51H229.05V61.95H224.89V65.06H229.91V66.5Z"/>
    <path d="M233.3 66.5V65.2Q233.66 65.23 233.89 65.15Q234.13 65.08 234.29 64.86Q234.46 64.63 234.58 64.21Q234.69 63.79 234.81 63.13Q234.96 62.27 235.07 61.35Q235.18 60.44 235.25 59.53Q235.33 58.63 235.38 57.8Q235.42 56.97 235.45 56.28H242.19V66.5H240.66V57.72H236.88Q236.85 58.27 236.8 58.96Q236.75 59.66 236.68 60.45Q236.61 61.23 236.5 62.07Q236.4 62.91 236.24 63.75Q236.11 64.47 235.92 65.05Q235.74 65.64 235.42 66.02Q235.1 66.41 234.59 66.54Q234.08 66.67 233.3 66.5Z"/>
    <path d="M246.57 66.5V56.28H248.1V59.93H250.72Q250.86 59.93 251.09 59.94Q251.31 59.95 251.51 59.99Q252.37 60.12 252.94 60.57Q253.51 61.02 253.8 61.7Q254.08 62.38 254.08 63.21Q254.08 64.05 253.8 64.73Q253.52 65.41 252.95 65.86Q252.37 66.31 251.51 66.44Q251.31 66.47 251.09 66.49Q250.87 66.5 250.72 66.5ZM248.1 65.06H250.66Q250.8 65.06 250.97 65.04Q251.15 65.03 251.3 64.99Q251.75 64.88 252.02 64.6Q252.29 64.32 252.41 63.95Q252.53 63.58 252.53 63.21Q252.53 62.85 252.41 62.48Q252.29 62.11 252.02 61.83Q251.75 61.54 251.3 61.44Q251.15 61.4 250.97 61.38Q250.8 61.37 250.66 61.37H248.1Z"/>
  </g>
</svg>
